<svg id="Layer_1" data-name="Layer 1" xmlns="http://www.w3.org/2000/svg" viewBox="0 0 118.14 149.96"><defs><style>.cls-1{fill:#003e4f;}.cls-2{fill:#fff;}</style></defs><title>drag_gdf_icon_118x150</title><rect class="cls-1" width="118.14" height="149.96"/><path class="cls-2" d="M44.15,105.9,16.07,77.82a3.94,3.94,0,0,1,0-5.64L44.15,44.1A4,4,0,0,1,47,42.91a4,4,0,0,1,4,4v56.16a4,4,0,0,1-4,4A4,4,0,0,1,44.15,105.9ZM67,103.08V46.92a4,4,0,0,1,4-4,4,4,0,0,1,2.82,1.19l28.08,28.08a3.94,3.94,0,0,1,0,5.64L73.85,105.9A4,4,0,0,1,71,107.09,4,4,0,0,1,67,103.08Z"/></svg>